<svg id="Layer_1" data-name="Layer 1" xmlns="http://www.w3.org/2000/svg" viewBox="0 0 667.85003 143.70024"><defs><style>.cls-1{fill:#fff;}.cls-2{fill:#fe2911;}</style></defs><title>Sitecore_logo_RGB_Dark</title><path class="cls-1" d="M647.8,100.5V88.2H620.2V75.9h24.7V64.4H620.2V53.2h26.1V41.1H606.4v59.4ZM573,63a6.65343,6.65343,0,0,1-2.5,2.2,13.30681,13.30681,0,0,1-3.4,1,21.864,21.864,0,0,1-3.6.3h-6.8V52.7h7.7c1.1,0,2.2.1,3.3.2a11.24382,11.24382,0,0,1,3.1,1,7.39515,7.39515,0,0,1,2.3,2,6.65072,6.65072,0,0,1,.9,3.4,6.86315,6.86315,0,0,1-1,3.7m18.3,37.5L575.8,75.1a17.86912,17.86912,0,0,0,9.1-5.9,16.19169,16.19169,0,0,0,3.3-10.2,17.66788,17.66788,0,0,0-1.9-8.5,15.20081,15.20081,0,0,0-5.2-5.5,21.27489,21.27489,0,0,0-7.3-3,38.37141,38.37141,0,0,0-8.3-.9H542.9v59.4h14V76.9h4.9l12.9,23.6ZM510.4,78a17.99478,17.99478,0,0,1-3.5,5.8,16.00621,16.00621,0,0,1-5.4,3.8,17.41774,17.41774,0,0,1-13.8,0,16.64135,16.64135,0,0,1-5.3-3.8,19.12916,19.12916,0,0,1-3.5-5.8,21.53542,21.53542,0,0,1,0-14.6,14.69161,14.69161,0,0,1,3.5-5.7,16.6349,16.6349,0,0,1,12.2-5.2,16.39366,16.39366,0,0,1,6.9,1.4,17.05632,17.05632,0,0,1,5.4,3.8,18.65747,18.65747,0,0,1,3.5,5.7,19.91889,19.91889,0,0,1,1.3,7.2,20.99,20.99,0,0,1-1.3,7.4m14.2-20.3a27.49735,27.49735,0,0,0-6.8-9.8,31.84933,31.84933,0,0,0-10.3-6.2,39.34234,39.34234,0,0,0-25.8,0,30.38571,30.38571,0,0,0-10.2,6.2,29.25768,29.25768,0,0,0-6.8,9.8,31.79671,31.79671,0,0,0-2.4,12.9,34.647,34.647,0,0,0,2.4,12.8,27.37888,27.37888,0,0,0,6.8,10,29.35421,29.35421,0,0,0,10.2,6.4,38.105,38.105,0,0,0,25.8,0,30.72126,30.72126,0,0,0,10.3-6.4,30.07767,30.07767,0,0,0,6.8-10A31.79724,31.79724,0,0,0,527,70.5a32.73106,32.73106,0,0,0-2.4-12.8M453.7,92.2l-10-9.4a15.50232,15.50232,0,0,1-5.1,4.4,16.173,16.173,0,0,1-7.5,1.7,17.86558,17.86558,0,0,1-6.8-1.3,16.35159,16.35159,0,0,1-5.3-3.7,18.6575,18.6575,0,0,1-3.5-5.7,20.99015,20.99015,0,0,1-1.3-7.4,19.542,19.542,0,0,1,1.3-7.2,19.12947,19.12947,0,0,1,3.5-5.8,17.05616,17.05616,0,0,1,5.4-3.8,18.09781,18.09781,0,0,1,6.9-1.4,19.00976,19.00976,0,0,1,6.7,1.3,12.14321,12.14321,0,0,1,5.3,4.2l9.7-9.7a23.47013,23.47013,0,0,0-9.9-6.5,37.007,37.007,0,0,0-25,0,28.69508,28.69508,0,0,0-10.3,6.2,28.275,28.275,0,0,0-6.8,9.9,33.66778,33.66778,0,0,0-2.5,12.9,32.2418,32.2418,0,0,0,2.4,12.7,29.34218,29.34218,0,0,0,16.9,16.4,37.01575,37.01575,0,0,0,12.7,2.3,31.8956,31.8956,0,0,0,13.3-2.6,30.89611,30.89611,0,0,0,9.9-7.5m-68.4,8.3V88.2H357.7V75.9h24.6V64.4H357.7V53.2h26.1V41.1H343.9v59.4ZM328.1,53.3V41.1H280.2V53.3H297v47.1h14.3V53.3ZM264.5,41.1H250.1v59.4h14.4Zm-31.9,5.8a25.9855,25.9855,0,0,0-9.2-5.4,30.18524,30.18524,0,0,0-10.3-1.8,33.08694,33.08694,0,0,0-8.3,1,23.616,23.616,0,0,0-7.4,3.4,17.31532,17.31532,0,0,0-5.3,5.8,16.67005,16.67005,0,0,0-2,8.5A15.09757,15.09757,0,0,0,194.8,70a18.031,18.031,0,0,0,4.9,3.2,54.218,54.218,0,0,0,5.6,2.2c2,.6,3.7,1.2,5.2,1.7a16.98683,16.98683,0,0,1,3.9,1.8,9.54909,9.54909,0,0,1,2.4,2.1,4.01928,4.01928,0,0,1,.8,2.8,6.30242,6.30242,0,0,1-.7,3,4.9385,4.9385,0,0,1-1.8,2,8.48576,8.48576,0,0,1-2.6,1.1,16.27917,16.27917,0,0,1-3.1.3,14.68977,14.68977,0,0,1-7.1-1.8,16.75764,16.75764,0,0,1-5.7-4.5l-9.4,9.6a26.576,26.576,0,0,0,9.9,6.3,34.40925,34.40925,0,0,0,12.3,2.3,30.104,30.104,0,0,0,8.5-1.2,22.62434,22.62434,0,0,0,7.3-3.6,18.76329,18.76329,0,0,0,5-6.2,19.41479,19.41479,0,0,0,1.9-8.8,13.561,13.561,0,0,0-1.8-7.4,17.43686,17.43686,0,0,0-4.4-5,22.52353,22.52353,0,0,0-5.9-3.2c-2.2-.8-4.3-1.6-6.3-2.2-1.4-.4-2.7-.9-3.8-1.3a15.50213,15.50213,0,0,1-2.9-1.4,4.71178,4.71178,0,0,1-2.4-4.3,5.09855,5.09855,0,0,1,.8-2.9,5.77538,5.77538,0,0,1,2-1.8,8.24756,8.24756,0,0,1,2.6-1,14.154,14.154,0,0,1,2.9-.2,14.44789,14.44789,0,0,1,10.5,5.1Z" transform="translate(-2.4 -2.4)"/><path class="cls-2" d="M70.9,107.2a43.635,43.635,0,0,0,16-5.2C99,95.2,106,83.6,106.6,69.3l.1-1.2h16.8a49.5916,49.5916,0,0,0-9.1-23L97.2,56a27.0024,27.0024,0,0,1,1.9,26.4c-4.7,10.8-15.8,20.2-28.2,24.8" transform="translate(-2.4 -2.4)"/><path class="cls-2" d="M123.7,70.6H109.1c-1,14.5-8.6,26.7-21,33.6a47.855,47.855,0,0,1-23.4,5.9,54.27812,54.27812,0,0,1-19.1-3.5,45.57669,45.57669,0,0,0,24.6,7.2h.1A42.967,42.967,0,0,0,108,91.5l.7-1.2,9.8,6.2a49.65367,49.65367,0,0,0,5.4-22.4c-.1-1.1-.1-2.3-.2-3.5" transform="translate(-2.4 -2.4)"/><path class="cls-2" d="M70.3,116.4h0c-15.7,0-30.4-7.8-40.9-21.1a49.5822,49.5822,0,0,0,87.9,3.6l-7.6-4.8a45.63687,45.63687,0,0,1-39.4,22.3" transform="translate(-2.4 -2.4)"/><path class="cls-2" d="M74.2,126.4a52.2,52.2,0,1,1,52.2-52.2h0a52.17344,52.17344,0,0,1-52.2,52.2h0m0-124A71.85,71.85,0,1,0,146,74.3v-.1A71.74124,71.74124,0,0,0,74.2,2.4" transform="translate(-2.4 -2.4)"/><path class="cls-1" d="M663.2,46.7V44.8h1.1a2.92036,2.92036,0,0,1,.9.2.56882.56882,0,0,1,.4.7.89072.89072,0,0,1-.5.8,3.553,3.553,0,0,1-1,.2ZM662,50.4h1.2V47.6h.8l1.5,2.8H667l-1.8-2.9a2.3835,2.3835,0,0,0,1.1-.6,1.594,1.594,0,0,0,.4-1.2,1.76315,1.76315,0,0,0-.8-1.5,1.1355,1.1355,0,0,0-.8-.3,2.76856,2.76856,0,0,0-.9-.1H662Zm-2.3-5.2a4.73816,4.73816,0,0,1,2.6-2.6,5.25581,5.25581,0,0,1,3.9,0,4.18806,4.18806,0,0,1,1.6,1.1,4.997,4.997,0,0,1,1.4,3.5,4.05756,4.05756,0,0,1-.4,1.9,4.91738,4.91738,0,0,1-2.6,2.7,5.25581,5.25581,0,0,1-3.9,0,4.18806,4.18806,0,0,1-1.6-1.1,5.71473,5.71473,0,0,1-1.1-1.6,4.33357,4.33357,0,0,1-.4-1.9,5.87019,5.87019,0,0,1,.5-2m-.8,4.2a5.78244,5.78244,0,0,0,5.4,3.5,6.06957,6.06957,0,0,0,4.2-1.7,7.48649,7.48649,0,0,0,1.3-1.8,6.10306,6.10306,0,0,0,0-4.6,4.62853,4.62853,0,0,0-1.3-1.8,4.7377,4.7377,0,0,0-1.9-1.2,5.54,5.54,0,0,0-4.6,0,7.60742,7.60742,0,0,0-1.9,1.2,6.405,6.405,0,0,0-1.3,1.9,5.43952,5.43952,0,0,0,.1,4.5" transform="translate(-2.4 -2.4)"/></svg>